<svg xmlns="http://www.w3.org/2000/svg" width="20" height="20" viewBox="0 0 20 20">
    <g fill="#FFF" fill-rule="nonzero" transform="translate(1 1)">
        <path stroke="#FFF" stroke-width=".5" d="M17.84 7.335a.562.562 0 0 0-1.066-.127c-.178.394-.57.668-1.023.667a1.123 1.123 0 0 1-1.07-.805.563.563 0 0 0-.668-.386 2.24 2.24 0 0 1-.513.066 2.257 2.257 0 0 1-2.25-2.25c0-.167.024-.335.066-.512a.563.563 0 0 0-.386-.668 1.121 1.121 0 0 1-.805-1.07c0-.454.273-.845.667-1.024A.562.562 0 0 0 10.665.16 9.014 9.014 0 0 0 9 0C4.035.001.001 4.035 0 9c.001 4.965 4.035 8.999 9 9 4.965-.001 8.999-4.035 9-9 0-.573-.06-1.128-.16-1.665zm-3.274 7.23A7.848 7.848 0 0 1 9 16.876a7.848 7.848 0 0 1-5.566-2.31A7.848 7.848 0 0 1 1.125 9c0-2.172.882-4.138 2.31-5.566A7.848 7.848 0 0 1 9 1.125c.101 0 .2.01.3.015-.187.328-.3.704-.3 1.11.001.84.467 1.56 1.146 1.944-.01.1-.021.2-.021.306A3.378 3.378 0 0 0 13.5 7.875c.106 0 .206-.01.306-.02A2.235 2.235 0 0 0 15.75 9c.406 0 .782-.113 1.11-.3.004.1.015.199.015.3a7.848 7.848 0 0 1-2.31 5.566z"/>
        <circle cx="6.75" cy="4.5" r="1.125"/>
        <circle cx="4.5" cy="9" r="1.125"/>
        <circle cx="10.125" cy="13.5" r="1.125"/>
        <circle cx="9.563" cy="9.563" r="1"/>
        <circle cx="14.063" cy="11.813" r="1"/>
        <circle cx="6.188" cy="12.938" r="1"/>
    </g>
</svg>
