<svg xmlns="http://www.w3.org/2000/svg" width="32" height="32" viewBox="0 0 32 32">
    <g fill="#1B7CF8" fill-rule="nonzero" transform="translate(1 1)">
        <path stroke="#1B7CF8" stroke-width=".5" d="M29.733 12.225a.936.936 0 0 0-1.776-.212 1.875 1.875 0 0 1-1.706 1.112c-.84.002-1.548-.564-1.784-1.342a.938.938 0 0 0-1.112-.643c-.296.07-.577.11-.855.11a3.762 3.762 0 0 1-3.75-3.75c0-.278.04-.559.11-.854a.939.939 0 0 0-.643-1.113 1.869 1.869 0 0 1-1.342-1.783c0-.757.456-1.41 1.112-1.706a.936.936 0 1 0-.212-1.777A15.023 15.023 0 0 0 15 0C6.726.002.002 6.726 0 15c.002 8.274 6.726 14.998 15 15 8.274-.002 14.998-6.726 15-15 0-.954-.1-1.88-.267-2.775zm-5.456 12.052A13.08 13.08 0 0 1 15 28.125a13.08 13.08 0 0 1-9.277-3.848A13.08 13.08 0 0 1 1.875 15c0-3.62 1.47-6.896 3.848-9.277A13.08 13.08 0 0 1 15 1.875c.169 0 .334.018.502.025A3.712 3.712 0 0 0 15 3.75c.002 1.4.778 2.6 1.91 3.24a4.735 4.735 0 0 0-.035.51 5.63 5.63 0 0 0 5.625 5.625c.176 0 .343-.017.51-.035.64 1.13 1.84 1.908 3.24 1.91.676 0 1.304-.188 1.85-.502.007.167.025.333.025.502 0 3.62-1.47 6.896-3.848 9.277z"/>
        <circle cx="11.471" cy="7.059" r="1.765"/>
        <circle cx="7.941" cy="15" r="1.765"/>
        <circle cx="16.765" cy="22.059" r="1.765"/>
        <circle cx="15.882" cy="15.882" r="1"/>
        <circle cx="23.824" cy="19.412" r="1"/>
        <circle cx="10.588" cy="21.176" r="1"/>
    </g>
</svg>
