<svg xmlns="http://www.w3.org/2000/svg" width="18" height="16" viewBox="0 0 18 16">
    <path fill="#FFF" fill-rule="nonzero" d="M15.89 0H2.11C.945 0 0 .912 0 2.034v11.932C0 15.088.946 16 2.11 16h13.78c1.164 0 2.11-.912 2.11-2.034V2.034C18 .912 17.054 0 15.89 0zM2.11 1.356h13.78c.388 0 .704.304.704.678v2.034H1.406V2.034c0-.374.316-.678.703-.678zm13.78 13.288H2.11a.692.692 0 0 1-.704-.678V5.424h15.188v8.542a.692.692 0 0 1-.703.678zM5.485 9.492h1.407v1.355H5.484V9.492zm-2.882 0h1.406v1.355H2.602V9.492zm5.695 0h1.406v1.355H8.297V9.492zm2.848 0h1.406v1.355h-1.406V9.492zm2.777 0h1.406v1.355h-1.406V9.492zM2.46 2.712a.69.69 0 0 1 .703-.678.69.69 0 0 1 .703.678.69.69 0 0 1-.703.678.69.69 0 0 1-.703-.678zm2.46 0a.69.69 0 0 1 .704-.678.69.69 0 0 1 .703.678.69.69 0 0 1-.703.678.69.69 0 0 1-.703-.678z"/>
</svg>
