<svg xmlns="http://www.w3.org/2000/svg" width="30" height="30" viewBox="0 0 30 30">
    <g fill="#00C9A6" fill-rule="nonzero">
        <path d="M29.898 11.559l-1.426-7.891a2.739 2.739 0 0 0-2.198-2.198L18.383.043A2.728 2.728 0 0 0 15.97.8L.797 15.97a2.73 2.73 0 0 0 0 3.856l9.317 9.317c.532.532 1.23.798 1.928.798s1.397-.266 1.928-.798l15.173-15.172a2.727 2.727 0 0 0 .755-2.413zm-1.997 1.17L12.73 27.904a.972.972 0 0 1-1.373 0L2.04 18.585a.972.972 0 0 1 0-1.372L17.212 2.04a.971.971 0 0 1 .859-.269l7.89 1.427c.397.072.71.386.783.782l1.426 7.89a.97.97 0 0 1-.269.86z"/>
        <path d="M24.443 5.475a2.406 2.406 0 0 0-3.4 0 2.406 2.406 0 0 0 0 3.399 2.396 2.396 0 0 0 1.7.703c.615 0 1.23-.234 1.7-.703a2.388 2.388 0 0 0 .703-1.7c0-.642-.25-1.245-.703-1.7zM23.2 7.632a.648.648 0 1 1-.916-.917.648.648 0 0 1 .916.917z"/>
    </g>
</svg>
