<svg xmlns="http://www.w3.org/2000/svg" width="19" height="20" viewBox="0 0 19 20">
    <path fill="#000" fill-rule="nonzero" d="M8.46.03l.014-.003A2.735 2.735 0 0 1 9 0h.078a2.735 2.735 0 0 1 .462.03 6.364 6.364 0 0 1 5.737 6.325v1.11a.678.678 0 0 1 .156.433v.99c0 1.767.763 3.44 2.098 4.605a.662.662 0 0 1 .07.052 1.59 1.59 0 0 1-1.033 2.795h-4.154a3.41 3.41 0 0 1-3.336 2.724 3.41 3.41 0 0 1-3.336-2.724H1.59a1.59 1.59 0 0 1-1.033-2.796.627.627 0 0 1 .072-.054 6.101 6.101 0 0 0 2.095-4.603V6.355A6.364 6.364 0 0 1 8.46.03zM9 1.362a4.999 4.999 0 0 0-4.915 4.993v2.532A7.466 7.466 0 0 1 1.45 14.58l-.04.031a.225.225 0 0 0-.048.14.23.23 0 0 0 .227.228h14.978a.23.23 0 0 0 .227-.227.217.217 0 0 0-.049-.141l-.039-.03a7.47 7.47 0 0 1-2.529-4.437c-.154-.23-.262-.64-.262-1.257V6.355A4.999 4.999 0 0 0 9 1.362zM7.152 16.34a2.046 2.046 0 0 0 1.926 1.362c.887 0 1.645-.569 1.926-1.362H7.152z"/>
</svg>
