<svg xmlns="http://www.w3.org/2000/svg" width="20" height="20" viewBox="0 0 20 20">
    <g fill="none" fill-rule="evenodd">
        <path fill="#000" d="M10.011 10.528c1.592-.013 3.034-1.251 3.027-3.058-.008-1.857-1.563-3.104-3.215-3.032-1.556.068-2.925 1.49-2.89 3.072.038 1.684 1.431 3.05 3.078 3.018m-.024 8.298c2.041-.014 3.87-.65 5.487-1.909.152-.118.186-.238.159-.41-.44-2.745-2.887-4.814-5.668-4.791-2.777.023-5.164 2.064-5.615 4.797-.03.176.013.292.163.409 1.61 1.25 3.43 1.886 5.474 1.904m6.666-3.07c2.866-3.169 3.155-8.725-.68-12.257C12.143-.028 6.266.457 3.03 4.562c-3.046 3.865-1.98 8.826.307 11.17.644-2.29 2.086-3.862 4.29-4.756-2.38-1.761-2.199-4.685-.811-6.232 1.564-1.743 4.15-1.954 5.865-.482.882.756 1.407 1.716 1.487 2.88.11 1.597-.536 2.862-1.818 3.827 2.223.902 3.646 2.483 4.303 4.788m3.344-5.778c-.07 5.563-4.398 9.992-9.994 10.002-5.541.01-9.99-4.363-10-9.976C-.007 4.44 4.385.012 9.979.003c5.543-.01 9.929 4.365 10.018 9.976"/>
        <path d="M10.011 10.528c1.592-.013 3.034-1.251 3.027-3.058-.008-1.857-1.563-3.104-3.215-3.032-1.556.068-2.925 1.49-2.89 3.072.038 1.684 1.431 3.05 3.078 3.018zm-.024 8.298c2.041-.014 3.87-.65 5.487-1.909.152-.118.186-.238.159-.41-.44-2.745-2.887-4.814-5.668-4.791-2.777.023-5.164 2.064-5.615 4.797-.03.176.013.292.163.409 1.61 1.25 3.43 1.886 5.474 1.904zm6.666-3.07c2.866-3.169 3.155-8.725-.68-12.257C12.143-.028 6.266.457 3.03 4.562c-3.046 3.865-1.98 8.826.307 11.17.644-2.29 2.086-3.862 4.29-4.756-2.38-1.761-2.199-4.685-.811-6.232 1.564-1.743 4.15-1.954 5.865-.482.882.756 1.407 1.716 1.487 2.88.11 1.597-.536 2.862-1.818 3.827 2.223.902 3.646 2.483 4.303 4.788zm3.344-5.777c-.07 5.563-4.398 9.992-9.994 10.002-5.541.01-9.99-4.363-10-9.976C-.007 4.44 4.385.012 9.979.003c5.543-.01 9.929 4.365 10.018 9.976z"/>
    </g>
</svg>
