<svg xmlns="http://www.w3.org/2000/svg" xmlns:xlink="http://www.w3.org/1999/xlink" width="30" height="28" viewBox="0 0 30 28">
    <defs>
        <path id="a" d="M0 .01h30v27.225H0z"/>
    </defs>
    <g fill="none" fill-rule="evenodd">
        <g transform="translate(0 .049)">
            <mask id="b" fill="#fff">
                <use xlink:href="#a"/>
            </mask>
            <path fill="#FFC109" d="M28.493 4.549c0-.571.045-1.132-.01-1.682a1.475 1.475 0 0 0-1.468-1.356c-.73-.014-1.411.53-1.5 1.296-.067.568-.014 1.15-.014 1.742h2.992zm-8.992 18.167H1.478c0 .439.013.86-.003 1.28-.039 1.031.67 1.746 1.717 1.741 5.466-.024 10.933-.01 16.4-.01.09 0 .182-.01.32-.017-.577-.958-.345-1.984-.411-2.994zm-14.988-1.52c.119.005.214.013.31.013l7.497-.001c2.597 0 5.194 0 7.79.002.618 0 .868.255.87.872 0 .708-.011 1.417.003 2.126.024 1.18 1.256 1.903 2.258 1.325.56-.323.78-.842.78-1.48-.002-6.949.001-13.898-.004-20.847-.001-.542.088-1.051.33-1.534.02-.04.023-.087.044-.168h-.313c-5.955.001-11.91 0-17.865.006-.222 0-.451.023-.662.086-.688.207-1.051.76-1.052 1.58l-.001 17.717c0 .095.01.19.015.302zM0 24.53v-2.717c.159-.447.465-.64.94-.61.429.026.86.004 1.29.004h.772v-.394c0-5.846-.005-11.692.012-17.538.002-.479.077-.993.262-1.429C3.795.623 4.786.03 6.088.021 8.753 0 11.418.015 14.083.015c4.265 0 8.53-.006 12.796.004 1.319.003 2.294.606 2.856 1.823.128.278.179.592.265.89v2.717c-.164.443-.476.612-.946.601-1.015-.023-2.03-.007-3.045-.007h-.521v.408l-.001 17.773c0 1.305-.838 2.482-2.089 2.84-.477.136-.998.162-1.499.163-6.227.01-12.454.008-18.681.006-1.508 0-2.634-.78-3.063-2.116-.062-.192-.104-.39-.155-.586z" mask="url(#b)"/>
        </g>
        <path fill="#FFC109" stroke="#FFC109" stroke-width=".5" d="M16.497 6.168c-.124.443-.252.903-.382 1.362-.876 3.089-1.753 6.177-2.631 9.265-.142.5-.505.739-.928.626-.424-.114-.627-.536-.484-1.04.976-3.457 1.955-6.913 2.934-10.37.112-.395.35-.613.675-.632.344-.02.6.121.73.422.044.105.054.224.086.367M9.29 11.421c.563.562 1.114 1.116 1.67 1.665.185.182.298.393.265.653-.079.613-.725.873-1.207.49a1.962 1.962 0 0 1-.173-.159c-.683-.688-1.37-1.374-2.048-2.068-.394-.404-.398-.785-.007-1.186.704-.723 1.419-1.436 2.131-2.151.211-.212.457-.333.765-.246.3.086.48.29.54.594.057.275-.055.497-.243.687l-1.47 1.482c-.067.069-.131.14-.223.24M19.244 11.448c-.618-.622-1.169-1.166-1.707-1.722-.453-.468-.297-1.129.298-1.304.272-.08.506.012.694.198.75.745 1.498 1.494 2.235 2.253.311.32.303.756-.014 1.08-.732.75-1.471 1.494-2.214 2.233-.312.31-.757.316-1.05.039-.295-.279-.306-.77-.002-1.086.482-.502.976-.992 1.47-1.482.075-.075.173-.126.29-.21"/>
    </g>
</svg>
