<svg xmlns="http://www.w3.org/2000/svg" width="135" height="26" viewBox="0 0 135 26">
    <g fill="#FFF" fill-rule="evenodd">
        <path fill-rule="nonzero" d="M41.44 21.858c-4.454 0-7.683-3.38-7.683-7.785 0-4.406 3.23-7.786 7.682-7.786 2.68 0 5.045 1.348 6.332 3.465l-2.912 1.711c-.655-1.155-1.921-1.84-3.42-1.84-2.617 0-4.305 1.776-4.305 4.45 0 2.673 1.688 4.448 4.305 4.448 1.499 0 2.786-.684 3.42-1.839l2.912 1.711c-1.266 2.118-3.63 3.465-6.332 3.465zm13.085 0c-3.103 0-5.593-2.46-5.593-5.646 0-3.187 2.49-5.647 5.593-5.647 3.102 0 5.593 2.46 5.593 5.647 0 3.186-2.49 5.646-5.593 5.646zm0-3.123c1.372 0 2.427-1.005 2.427-2.523 0-1.519-1.055-2.524-2.427-2.524s-2.427 1.005-2.427 2.524c0 1.518 1.055 2.523 2.427 2.523zm12.452 3.123c-3.102 0-5.593-2.46-5.593-5.646 0-3.187 2.49-5.647 5.593-5.647 3.103 0 5.593 2.46 5.593 5.647 0 3.186-2.49 5.646-5.593 5.646zm0-3.123c1.372 0 2.427-1.005 2.427-2.523 0-1.519-1.055-2.524-2.427-2.524s-2.427 1.005-2.427 2.524c0 1.518 1.055 2.523 2.427 2.523zm17.518 2.824h-3.588l-3.377-4.727v4.727h-3.166V6.587h3.166v8.961l3.166-4.684h3.693l-3.841 5.348 3.947 5.347zm2.743-11.636c-1.034 0-1.9-.877-1.9-1.925s.866-1.925 1.9-1.925c1.034 0 1.9.877 1.9 1.925s-.866 1.925-1.9 1.925zM85.655 21.56V10.864h3.166V21.56h-3.166zm8.316-4.064c.401 1.112 1.372 1.497 2.533 1.497.865 0 1.604-.342 2.026-.813l2.532 1.476c-1.034 1.454-2.596 2.203-4.6 2.203-3.61 0-5.847-2.46-5.847-5.646 0-3.187 2.28-5.647 5.614-5.647 3.082 0 5.361 2.417 5.361 5.647 0 .449-.042.876-.127 1.283h-7.492zm-.063-2.396h4.537c-.337-1.24-1.287-1.69-2.237-1.69-1.203 0-2.005.6-2.3 1.69zm16.124-4.235h3.377L109.8 21.238c-1.182 3.4-3.06 4.748-6.015 4.598v-2.994c1.477 0 2.174-.47 2.638-1.775l-4.2-10.203h3.483l2.342 6.545 1.984-6.545zm7.366 6.63c.401 1.113 1.372 1.498 2.533 1.498.865 0 1.604-.342 2.026-.813l2.532 1.476c-1.034 1.454-2.595 2.203-4.6 2.203-3.61 0-5.847-2.46-5.847-5.646 0-3.187 2.28-5.647 5.614-5.647 3.082 0 5.361 2.417 5.361 5.647 0 .449-.042.876-.127 1.283h-7.492zm-.063-2.395h4.537c-.337-1.24-1.287-1.69-2.237-1.69-1.203 0-2.005.6-2.3 1.69zm12.473-1.112c0 1.22 5.192.407 5.192 4.363 0 2.46-2.11 3.508-4.39 3.508-2.11 0-3.715-.813-4.538-2.545l2.744-1.583c.274.813.865 1.262 1.794 1.262.76 0 1.14-.235 1.14-.663 0-1.176-5.192-.556-5.192-4.256 0-2.332 1.942-3.508 4.136-3.508 1.71 0 3.23.77 4.116 2.289l-2.701 1.475c-.296-.556-.718-.94-1.415-.94-.548 0-.886.213-.886.598z"/>
        <path d="M11.199 5.313A1.25 1.25 0 0 0 9.59 3.397a1.248 1.248 0 0 0-.152 1.76c.444.53 1.23.6 1.76.156m-3.748 9.13a2.501 2.501 0 1 0-3.215-3.832 2.499 2.499 0 0 0-.305 3.522 2.496 2.496 0 0 0 3.52.31m12.845-1.526a2.914 2.914 0 0 0 .356-4.108 2.916 2.916 0 0 0-4.108-.363 2.919 2.919 0 0 0 3.752 4.471m-5.138 8.12a1.668 1.668 0 0 0-2.144-2.554 1.665 1.665 0 0 0-.203 2.348 1.665 1.665 0 0 0 2.347.207m4.694.414c-5.108 4.286-12.724 3.613-17.017-1.502C-1.457 14.834-.797 7.216 4.31 2.93 9.417-1.354 17.034-.681 21.326 4.435c4.293 5.116 3.633 12.733-1.474 17.018"/>
    </g>
</svg>
