<svg xmlns="http://www.w3.org/2000/svg" width="20" height="18" viewBox="0 0 20 18">
    <g fill="#FFF" fill-rule="nonzero" stroke="#FFF" stroke-width=".5">
        <path d="M17.557 1.001H2.443C1.647 1.001 1 1.658 1 2.466v9.46c0 .807.647 1.464 1.443 1.464h15.114c.795 0 1.443-.657 1.443-1.465V2.466c0-.808-.648-1.465-1.443-1.465zm.206 10.924a.21.21 0 0 1-.206.21H2.443a.21.21 0 0 1-.206-.21V2.466a.21.21 0 0 1 .206-.21h15.114a.21.21 0 0 1 .206.21v9.46z"/>
        <path d="M9.371 12.762h1.237v3.809H9.371z"/>
        <path d="M13.041 15.943H6.938a.623.623 0 0 0-.618.628c0 .347.276.628.618.628h6.103a.623.623 0 0 0 .619-.628.623.623 0 0 0-.619-.628z"/>
    </g>
</svg>
