<svg xmlns="http://www.w3.org/2000/svg" width="30" height="24" viewBox="0 0 30 24">
    <g fill="#DE4437" fill-rule="nonzero">
        <path d="M19.303 6.726c.024-.192.059-.38.059-.578 0-.197-.033-.385-.059-.577l1.106-.838a.612.612 0 0 0 .16-.796l-.993-1.723a.61.61 0 0 0-.77-.258l-1.275.538a4.617 4.617 0 0 0-1.006-.6L16.357.54a.615.615 0 0 0-.61-.539h-1.988c-.31 0-.571.23-.61.539l-.17 1.354a4.513 4.513 0 0 0-1.006.6l-1.274-.54a.615.615 0 0 0-.77.259l-.994 1.723a.614.614 0 0 0 .16.797l1.106.837c-.023.194-.057.382-.057.58 0 .197.034.385.06.577l-1.107.838a.612.612 0 0 0-.16.796l.994 1.723a.61.61 0 0 0 .77.258l1.274-.538c.31.236.642.446 1.007.6l.17 1.353c.038.308.3.54.61.54h1.987c.31 0 .571-.232.61-.54l.17-1.354a4.53 4.53 0 0 0 1.006-.6l1.274.54c.286.12.616.009.77-.259l.994-1.723a.613.613 0 0 0-.16-.796l-1.11-.838zm-4.55 1.881a2.458 2.458 0 1 1 .002-4.917 2.458 2.458 0 0 1-.002 4.917z"/>
        <path d="M28.748 21.147h-1.25V8.853c0-1.357-1.12-2.458-2.5-2.458h-1.25c-.69 0-1.25.55-1.25 1.23 0 .679.56 1.23 1.251 1.23H25v12.292H5V8.853h1.25c.69 0 1.251-.55 1.251-1.23a1.24 1.24 0 0 0-1.25-1.23H5c-1.38 0-2.5 1.101-2.5 2.458v12.296h-1.25c-.692 0-1.251.55-1.251 1.23 0 .678.56 1.23 1.25 1.23h27.5c.69 0 1.25-.55 1.25-1.23a1.242 1.242 0 0 0-1.252-1.23z"/>
    </g>
</svg>
