<svg xmlns="http://www.w3.org/2000/svg" xmlns:xlink="http://www.w3.org/1999/xlink" width="18" height="20" viewBox="0 0 18 20">
    <defs>
        <path id="a" d="M.002 0H18v20H.002z"/>
    </defs>
    <g fill="none" fill-rule="evenodd">
        <mask id="b" fill="#fff">
            <use xlink:href="#a"/>
        </mask>
        <path fill="#FFF" d="M7.373 19.219a.783.783 0 0 1-.785.781h-3.45A3.135 3.135 0 0 1 0 16.875V3.125A3.135 3.135 0 0 1 3.137 0h9.643a3.135 3.135 0 0 1 3.137 3.125v7.46a.783.783 0 0 1-.784.782.783.783 0 0 1-.784-.781V3.125c0-.862-.704-1.563-1.569-1.563H3.137c-.865 0-1.568.701-1.568 1.563v13.75c0 .862.703 1.563 1.568 1.563h3.451c.433 0 .785.35.785.78zm4.623-14.532H3.917a.783.783 0 0 0-.784.782c0 .431.351.781.784.781h8.079c.433 0 .784-.35.784-.781a.783.783 0 0 0-.784-.782zm.784 3.907a.783.783 0 0 0-.784-.781H3.917a.783.783 0 0 0-.784.78c0 .432.351.782.784.782h8.079c.433 0 .784-.35.784-.781zm-8.863 2.344a.783.783 0 0 0-.784.78c0 .432.351.782.784.782H8.04c.433 0 .785-.35.785-.781a.783.783 0 0 0-.785-.781H3.917zm13.94 5.722a6.6 6.6 0 0 1-.18.246c-.263.33-.878 1.1-1.734 1.78-1.096.872-2.225 1.314-3.355 1.314s-2.258-.442-3.355-1.314c-.856-.68-1.47-1.45-1.733-1.78a6.582 6.582 0 0 1-.18-.246.779.779 0 0 1 0-.898c.027-.04.121-.173.18-.246.263-.33.877-1.1 1.733-1.78 1.097-.872 2.226-1.314 3.355-1.314 1.13 0 2.259.442 3.355 1.314.856.68 1.47 1.45 1.733 1.78.06.073.154.207.181.246.19.27.19.629 0 .898zm-1.636-.45c-1.247-1.477-2.468-2.226-3.633-2.226s-2.386.749-3.633 2.227c1.247 1.478 2.468 2.227 3.633 2.227s2.386-.75 3.633-2.227zm-3.594-1.483c-.823 0-1.49.664-1.49 1.484s.667 1.484 1.49 1.484c.824 0 1.49-.664 1.49-1.484s-.666-1.484-1.49-1.484z" mask="url(#b)"/>
    </g>
</svg>
