<svg xmlns="http://www.w3.org/2000/svg" width="18" height="18" viewBox="0 0 18 18">
    <path fill="#FFF" fill-rule="nonzero" d="M7.03 12.653h2.39v1.406H7.03v-1.406zm-2.637-.176a.879.879 0 1 0 0 1.757.879.879 0 0 0 0-1.757zm9.736-4.288h-7.1v1.406h7.1V8.189zm-9.736-.176a.879.879 0 1 0 0 1.758.879.879 0 0 0 0-1.758zm9.736-4.041h-7.1v1.405h7.1V3.972zm-9.736-.176a.879.879 0 1 0 0 1.757.879.879 0 0 0 0-1.757zm-2.987 12.09V2.11c0-.388.315-.703.703-.703h13.777c.388 0 .703.315.703.703v7.943h1.406V2.109A2.111 2.111 0 0 0 15.886 0H2.11A2.111 2.111 0 0 0 0 2.109v13.777c0 1.163.946 2.109 2.109 2.109h8.119v-1.406h-8.12a.704.704 0 0 1-.702-.703zM17.006 18l-1.4-1.4a3.144 3.144 0 0 1-1.618.446 3.167 3.167 0 0 1-3.163-3.163 3.167 3.167 0 0 1 3.163-3.163 3.167 3.167 0 0 1 3.163 3.163c0 .645-.194 1.246-.527 1.747L18 17.006l-.994.994zm-3.018-2.36a1.76 1.76 0 0 0 1.758-1.757 1.76 1.76 0 0 0-1.758-1.758 1.76 1.76 0 0 0-1.757 1.758 1.76 1.76 0 0 0 1.757 1.757z"/>
</svg>
