<svg xmlns="http://www.w3.org/2000/svg" width="18" height="18" viewBox="0 0 18 18">
    <g fill="#FFF" fill-rule="nonzero">
        <path d="M17.068 7.106l-1.263-.214a7.13 7.13 0 0 0-.507-1.225l.744-1.041a1.108 1.108 0 0 0-.12-1.432l-1.12-1.12a1.103 1.103 0 0 0-1.428-.12l-1.045.744a7.055 7.055 0 0 0-1.27-.522L10.85.928A1.11 1.11 0 0 0 9.752 0H8.17a1.11 1.11 0 0 0-1.098.928l-.218 1.278c-.42.131-.83.304-1.221.515L4.6 1.977a1.103 1.103 0 0 0-.647-.207c-.297 0-.578.116-.785.327l-1.124 1.12a1.112 1.112 0 0 0-.12 1.431l.752 1.056a6.964 6.964 0 0 0-.5 1.23l-1.248.21A1.11 1.11 0 0 0 0 8.24v1.582c0 .545.39 1.007.928 1.097l1.278.218c.131.421.304.83.515 1.222l-.74 1.03a1.108 1.108 0 0 0 .12 1.43l1.12 1.12a1.103 1.103 0 0 0 1.427.121l1.056-.752c.38.2.778.361 1.188.489l.21 1.263c.09.537.553.928 1.098.928h1.585a1.11 1.11 0 0 0 1.098-.928l.214-1.263a7.13 7.13 0 0 0 1.225-.507l1.04.744c.189.135.414.206.647.206.297 0 .575-.116.786-.327l1.12-1.12c.383-.383.435-.988.12-1.431l-.744-1.045c.206-.394.38-.804.507-1.225l1.263-.21a1.11 1.11 0 0 0 .928-1.098V8.203a1.097 1.097 0 0 0-.92-1.097zm-.086 2.68c0 .048-.034.09-.083.097l-1.578.263a.505.505 0 0 0-.406.372 6.016 6.016 0 0 1-.654 1.575.508.508 0 0 0 .023.552l.928 1.308a.102.102 0 0 1-.012.128l-1.12 1.12a.095.095 0 0 1-.07.03.092.092 0 0 1-.057-.02l-1.304-.927a.508.508 0 0 0-.553-.023 6.016 6.016 0 0 1-1.574.654.499.499 0 0 0-.372.406l-.267 1.578a.097.097 0 0 1-.098.083H8.203a.097.097 0 0 1-.097-.083l-.263-1.578a.505.505 0 0 0-.372-.406 6.246 6.246 0 0 1-1.541-.631.52.52 0 0 0-.256-.068.495.495 0 0 0-.293.094l-1.315.936a.112.112 0 0 1-.056.018.1.1 0 0 1-.072-.03l-1.12-1.12a.102.102 0 0 1-.01-.127l.924-1.297a.514.514 0 0 0 .022-.556 5.959 5.959 0 0 1-.661-1.57.515.515 0 0 0-.406-.373l-1.59-.27a.097.097 0 0 1-.082-.098V8.241c0-.049.033-.09.082-.098l1.567-.263c.2-.034.361-.18.41-.376a6.01 6.01 0 0 1 .642-1.578.502.502 0 0 0-.026-.549l-.936-1.315a.102.102 0 0 1 .012-.128l1.12-1.12a.095.095 0 0 1 .071-.03c.023 0 .041.008.056.02l1.297.924a.514.514 0 0 0 .556.022 5.959 5.959 0 0 1 1.57-.661.515.515 0 0 0 .373-.406l.27-1.59a.097.097 0 0 1 .098-.082h1.582c.049 0 .09.034.098.083l.263 1.567c.034.199.18.36.376.41a6.1 6.1 0 0 1 1.612.66.508.508 0 0 0 .552-.022l1.297-.932a.112.112 0 0 1 .056-.019.1.1 0 0 1 .071.03l1.12 1.12a.102.102 0 0 1 .011.128l-.928 1.304a.508.508 0 0 0-.022.552c.293.493.51 1.022.654 1.575.048.195.21.342.405.372l1.579.267a.097.097 0 0 1 .082.097v1.582h-.003z"/>
        <path d="M8.996 5.11a3.884 3.884 0 0 0-3.882 3.883 3.884 3.884 0 0 0 3.882 3.881 3.884 3.884 0 0 0 3.882-3.881A3.884 3.884 0 0 0 8.996 5.11zm0 6.75A2.87 2.87 0 0 1 6.13 8.993a2.87 2.87 0 0 1 2.867-2.868 2.87 2.87 0 0 1 2.867 2.868 2.87 2.87 0 0 1-2.867 2.867z"/>
    </g>
</svg>
